<svg width="304" height="86" viewBox="0 0 304 86" fill="none" xmlns="http://www.w3.org/2000/svg">
<path d="M31.8378 33.7942H37.4776V49.8311C35.4404 51.5144 33.0712 52.8075 30.37 53.7089C27.6689 54.6104 24.8482 55.0587 21.9111 55.0587C17.7595 55.0587 14.0201 54.1479 10.6913 52.3277C7.36243 50.506 4.74783 48.0015 2.84901 44.8095C0.948622 41.6175 0 38.0244 0 34.0301C0 30.0359 0.948622 26.4333 2.84901 23.2225C4.74783 20.0116 7.37187 17.504 10.7196 15.7027C14.0673 13.9014 17.8366 13 22.0275 13C25.317 13 28.3029 13.5396 30.9852 14.6156C33.6674 15.6933 35.9485 17.2696 37.8284 19.3446L34.1866 22.9865C30.8971 19.8134 26.9217 18.2276 22.2619 18.2276C19.1282 18.2276 16.3185 18.9041 13.8329 20.2539C11.3457 21.6052 9.39812 23.4852 7.98698 25.8937C6.57742 28.3022 5.87264 31.0144 5.87264 34.0286C5.87264 37.005 6.57742 39.6983 7.98698 42.1052C9.39654 44.5138 11.3441 46.4047 13.8329 47.7749C16.3201 49.1452 19.1093 49.8311 22.2037 49.8311C25.8834 49.8311 29.0958 48.9501 31.8362 47.1881V33.7942H31.8378Z" fill="#733DEC"/>
<path d="M79.4262 43.8405H57.5733L53.0504 54.1212H47L65.6216 13H71.4376L90.1174 54.1196H83.949L79.4262 43.8405ZM77.37 39.1414L68.5005 18.9922L59.631 39.1414H77.37Z" fill="#733DEC"/>
<path d="M140.941 13L122.907 54.1212H117.091L99 13H105.345L120.147 46.7776L135.068 13H140.941Z" fill="#733DEC"/>
<path d="M150.087 6.28639C149.362 5.58161 149 4.72108 149 3.70167C149 2.68383 149.362 1.81387 150.087 1.08706C150.812 0.363402 151.722 0 152.82 0C153.915 0 154.825 0.342951 155.551 1.02728C156.274 1.71318 156.638 2.56427 156.638 3.58211C156.638 4.64085 156.276 5.53127 155.551 6.25493C154.825 6.98016 153.915 7.34199 152.82 7.34199C151.723 7.34356 150.812 6.99117 150.087 6.28639Z" fill="#F56D98"/>
<path d="M155.637 82.0156V16.1549C155.637 14.5979 154.375 13.3358 152.818 13.3358C151.261 13.3358 149.999 14.5979 149.999 16.1549V82.0156C149.999 83.5726 151.261 84.8347 152.818 84.8347C154.375 84.8347 155.637 83.5726 155.637 82.0156Z" fill="#F56D98"/>
<path d="M189.146 69.9044V84.1195H183.33V69.7864L167 43H173.285L186.443 64.6767L199.659 43H205.475L189.146 69.9044Z" fill="#733DEC"/>
<path d="M225.691 82.3261C222.362 80.5044 219.748 77.9889 217.849 74.778C215.949 71.5672 215 67.9851 215 64.0286C215 60.0736 215.949 56.4899 217.849 53.2791C219.748 50.0683 222.361 47.5512 225.691 45.731C229.019 43.9093 232.76 43 236.911 43C241.023 43 244.744 43.9109 248.073 45.731C251.402 47.5528 254.005 50.0588 255.885 53.2508C257.765 56.4427 258.706 60.0359 258.706 64.0301C258.706 68.026 257.765 71.6175 255.885 74.8095C254.005 78.0015 251.402 80.5075 248.073 82.3277C244.744 84.1494 241.023 85.0587 236.911 85.0587C232.76 85.0571 229.019 84.1479 225.691 82.3261ZM245.048 77.7734C247.456 76.4031 249.355 74.5138 250.746 72.1037C252.135 69.6951 252.832 67.0034 252.832 64.027C252.832 61.0506 252.136 58.3589 250.746 55.9503C249.355 53.5418 247.456 51.6524 245.048 50.2806C242.639 48.9104 239.925 48.2245 236.911 48.2245C233.895 48.2245 231.164 48.9104 228.716 50.2806C226.269 51.6524 224.349 53.5402 222.96 55.9503C221.57 58.3589 220.874 61.0521 220.874 64.027C220.874 67.0034 221.57 69.6967 222.96 72.1037C224.349 74.5122 226.269 76.4031 228.716 77.7734C231.164 79.1436 233.895 79.8295 236.911 79.8295C239.925 79.8295 242.639 79.1452 245.048 77.7734Z" fill="#733DEC"/>
<path d="M283.099 48.1112H269V43H303.012V48.1112H288.915V84.1211H283.099V48.1112Z" fill="#733DEC"/>
</svg>
